<?xml version="1.0" encoding="UTF-8"?>
<svg xmlns="http://www.w3.org/2000/svg" xmlns:xlink="http://www.w3.org/1999/xlink" viewBox="67 41 442 129">
<path fill-rule="evenodd" fill="rgb(100%, 100%, 100%)" fill-opacity="1" d="M 430.425781 78.203125 C 428.15625 77.792969 425.839844 77.390625 423.484375 77 L 410.097656 79.679688 C 409.839844 79.730469 409.585938 79.789062 409.335938 79.859375 C 413.230469 80.410156 417.019531 80.988281 420.707031 81.589844 C 423.632812 80.167969 426.875 79.035156 430.425781 78.203125 "/>
<path fill-rule="evenodd" fill="rgb(100%, 100%, 100%)" fill-opacity="1" d="M 370.824219 69.449219 C 370.824219 69.449219 357.757812 73.269531 357.765625 73.355469 C 334.492188 72.28125 307.515625 72.164062 288 72.164062 C 264.460938 72.164062 241.824219 72.9375 220.703125 74.359375 L 220.351562 70.246094 C 220.328125 69.964844 220.265625 69.691406 220.175781 69.433594 C 241.480469 67.992188 264.289062 67.207031 288 67.207031 C 310.269531 67.207031 345.769531 68.097656 370.824219 69.449219 "/>
<path fill-rule="evenodd" fill="rgb(100%, 100%, 100%)" fill-opacity="1" d="M 168.605469 74.582031 C 164.371094 75.15625 160.238281 75.765625 156.226562 76.402344 L 157.492188 81.234375 C 160.667969 80.730469 163.925781 80.246094 167.25 79.777344 L 168.605469 74.582031 "/>
<path fill-rule="evenodd" fill="rgb(100%, 100%, 100%)" fill-opacity="1" d="M 395.195312 46.632812 L 391.289062 60.886719 C 390.8125 63.0625 389.71875 65.058594 388.144531 66.632812 C 386.566406 68.210938 384.574219 69.300781 382.394531 69.78125 L 364.59375 73.6875 L 382.394531 77.59375 C 384.574219 78.074219 386.566406 79.164062 388.144531 80.738281 C 389.71875 82.316406 390.8125 84.3125 391.289062 86.488281 L 395.789062 102.515625 L 399.105469 86.488281 C 399.582031 84.3125 400.671875 82.316406 402.25 80.738281 C 403.824219 79.164062 405.820312 78.074219 407.996094 77.59375 L 425.800781 73.6875 L 407.996094 69.78125 C 405.820312 69.300781 403.824219 68.210938 402.25 66.632812 C 400.671875 65.058594 399.582031 63.0625 399.105469 60.886719 L 395.195312 46.632812 "/>
<path fill-rule="evenodd" fill="rgb(100%, 100%, 100%)" fill-opacity="1" d="M 478.492188 128.300781 C 483.503906 126.101562 487.558594 123.800781 490.527344 121.40625 C 494.105469 118.519531 496.074219 115.527344 496.074219 112.425781 C 496.074219 109.320312 494.105469 106.328125 490.527344 103.441406 C 487.648438 101.125 483.753906 98.890625 478.953125 96.753906 C 478.828125 96.695312 478.613281 96.601562 478.492188 96.546875 L 478.476562 90.921875 L 479.15625 91.078125 C 494.789062 97.429688 503.007812 104.902344 503.007812 112.425781 C 503.007812 120.28125 494.046875 128.078125 477.042969 134.605469 C 453.472656 143.652344 416.964844 150.855469 368.980469 154.664062 C 370.300781 153.820312 373.625 150.117188 374.578125 149.132812 C 390.746094 147.707031 404.0625 145.886719 417.757812 143.730469 C 419.59375 143.441406 421.40625 143.148438 423.1875 142.847656 C 440.640625 139.90625 455.628906 136.410156 467.460938 132.484375 C 469.675781 131.75 471.773438 131 473.761719 130.238281 C 475.421875 129.601562 477 128.957031 478.492188 128.300781 "/>
<path fill-rule="evenodd" fill="rgb(100%, 100%, 100%)" fill-opacity="1" d="M 98.988281 128.9375 C 100.015625 129.367188 101.078125 129.792969 102.175781 130.214844 L 102.238281 130.238281 C 110.542969 133.425781 120.859375 136.371094 132.851562 139.007812 C 133.925781 139.242188 135.011719 139.476562 136.109375 139.707031 C 137.867188 140.074219 139.65625 140.4375 141.480469 140.792969 C 142.65625 141.023438 143.84375 141.25 145.046875 141.472656 C 154.90625 143.308594 165.660156 144.953125 177.164062 146.382812 C 178.539062 146.554688 179.917969 146.722656 181.3125 146.886719 C 183.785156 147.179688 186.292969 147.460938 188.828125 147.734375 C 195.53125 148.449219 202.453125 149.097656 209.570312 149.667969 C 233.796875 151.613281 260.273438 152.683594 288 152.683594 C 293.214844 152.683594 298.089844 152.644531 303.210938 152.570312 C 303.25 153.554688 303.164062 157.472656 303.164062 157.472656 C 303.164062 157.472656 295.417969 157.640625 288 157.640625 C 241.878906 157.640625 199.175781 154.675781 164.308594 149.667969 C 156.777344 148.585938 149.613281 147.410156 142.859375 146.148438 C 140.484375 145.707031 138.164062 145.25 135.894531 144.785156 C 134.792969 144.5625 133.707031 144.335938 132.636719 144.105469 C 120.671875 141.550781 110.261719 138.703125 101.714844 135.628906 C 100.773438 135.292969 99.855469 134.949219 98.957031 134.605469 C 98.8125 134.550781 98.664062 134.492188 98.519531 134.4375 C 81.800781 127.945312 72.992188 120.210938 72.992188 112.425781 C 72.992188 104.570312 81.953125 96.769531 98.957031 90.242188 C 100.015625 89.835938 102.226562 89.035156 102.226562 89.035156 L 101.363281 94.609375 C 101.363281 94.609375 89.328125 100.335938 85.472656 103.441406 C 81.894531 106.328125 79.925781 109.320312 79.925781 112.425781 C 79.925781 115.527344 81.894531 118.519531 85.472656 121.40625 C 88.730469 124.03125 93.289062 126.542969 98.988281 128.9375 "/>
<path fill-rule="evenodd" fill="rgb(100%, 100%, 100%)" fill-opacity="1" d="M 217.078125 70.523438 L 223.566406 146.382812 L 209.574219 146.382812 C 203.484375 145.894531 197.539062 145.347656 191.75 144.75 C 191.421875 137.441406 191.050781 130.015625 190.726562 122.679688 C 190.675781 120.933594 190.378906 113.945312 190.277344 112.199219 C 190.179688 110.300781 190.226562 108.15625 190.527344 106.40625 C 190.925781 103.914062 192.675781 93.929688 193.074219 91.4375 L 192.175781 91.4375 L 178.84375 143.296875 C 166.335938 141.769531 154.707031 139.984375 144.148438 137.980469 L 132.183594 91.4375 L 131.289062 91.4375 C 131.6875 93.929688 133.433594 103.914062 133.832031 106.40625 C 134.132812 108.15625 134.183594 110.300781 134.082031 112.199219 C 133.980469 113.894531 133.683594 120.882812 133.582031 122.679688 C 133.363281 126.992188 133.175781 131.351562 132.992188 135.6875 C 121.433594 133.125 111.472656 130.265625 103.414062 127.171875 C 103.097656 127.050781 102.78125 126.929688 102.46875 126.804688 L 107.28125 70.523438 L 151.300781 70.523438 L 162.179688 112.199219 L 173.058594 70.523438 L 217.078125 70.523438 "/>
<path fill-rule="evenodd" fill="rgb(100%, 100%, 100%)" fill-opacity="1" d="M 296.046875 98.199219 C 289.144531 86.464844 276.074219 80.125 259.300781 80.125 C 240.675781 80.125 227.757812 87.917969 221.46875 99.160156 L 224.777344 137.875 C 230.195312 143.878906 238.074219 147.351562 247.121094 147.351562 C 259.597656 147.351562 270.628906 140.714844 276.519531 123.796875 L 277.867188 123.796875 C 276.167969 130.78125 272.476562 136.722656 272.175781 137.46875 L 272.175781 144.507812 L 301.472656 144.507812 L 301.472656 127.921875 C 297.125 122.964844 294.550781 116.335938 294.550781 108.273438 C 294.550781 104.640625 295.078125 101.269531 296.046875 98.199219 Z M 247.722656 113.914062 C 247.722656 105.378906 252.914062 100.539062 260 100.539062 C 266.089844 100.539062 272.226562 104.429688 272.226562 113.914062 C 272.226562 123.394531 266.089844 127.289062 260 127.289062 C 252.914062 127.289062 247.722656 122.496094 247.722656 113.914062 "/>
<path fill-rule="evenodd" fill="rgb(100%, 100%, 100%)" fill-opacity="1" d="M 402.417969 84.105469 L 408.382812 84.105469 L 408.382812 91.460938 C 408.113281 91.820312 407.851562 92.183594 407.59375 92.554688 C 406.796875 93.707031 406.078125 94.917969 405.433594 96.183594 C 402.914062 101.140625 401.578125 106.972656 401.578125 113.613281 C 401.578125 120.160156 402.917969 125.925781 405.441406 130.835938 C 406.085938 132.089844 406.804688 133.289062 407.601562 134.433594 C 407.855469 134.792969 408.117188 135.148438 408.382812 135.5 L 408.382812 142.769531 L 382.496094 146.46875 L 382.496094 84.105469 L 388.542969 84.105469 C 388.550781 84.140625 388.558594 84.175781 388.566406 84.207031 L 392.851562 103.730469 C 393.121094 104.964844 394.214844 105.847656 395.480469 105.847656 C 396.746094 105.847656 397.839844 104.964844 398.113281 103.730469 L 402.398438 84.207031 C 402.40625 84.175781 402.410156 84.140625 402.417969 84.105469 "/>
<path fill-rule="evenodd" fill="rgb(100%, 100%, 100%)" fill-opacity="1" d="M 470.347656 84.410156 C 472.050781 85.128906 473.660156 85.902344 475.207031 86.714844 L 475.207031 104.53125 C 469.816406 102.085938 459.835938 100.089844 452 100.089844 C 442.066406 100.089844 434.183594 103.882812 434.183594 113.265625 C 434.183594 122.996094 442.066406 126.789062 452 126.789062 C 459.835938 126.789062 469.816406 124.792969 475.207031 122.347656 L 475.207031 126.132812 C 474.359375 126.480469 473.484375 126.828125 472.585938 127.171875 C 459.28125 132.277344 440.769531 136.738281 418.457031 140.300781 C 415.167969 138.179688 412.441406 135.582031 410.316406 132.539062 C 409.605469 131.515625 408.957031 130.445312 408.382812 129.324219 C 406.082031 124.847656 404.886719 119.582031 404.886719 113.613281 C 404.886719 107.546875 406.082031 102.210938 408.382812 97.679688 C 408.957031 96.546875 409.605469 95.464844 410.316406 94.433594 C 413.007812 90.539062 416.664062 87.375 421.214844 85 C 422.953125 84.09375 424.820312 83.300781 426.816406 82.628906 C 430.75 81.300781 435.167969 80.433594 440.046875 80.050781 C 441.949219 79.902344 443.921875 79.824219 445.960938 79.824219 C 450.3125 79.824219 454.179688 80.160156 457.675781 80.742188 C 462.523438 81.550781 466.648438 82.847656 470.347656 84.410156 "/>
<path fill-rule="evenodd" fill="rgb(100%, 100%, 100%)" fill-opacity="1" d="M 379.1875 133.125 C 374.421875 152.003906 359.925781 163.769531 336.507812 163.769531 C 325.976562 163.769531 314.347656 161.175781 306.8125 156.335938 L 306.8125 138.515625 C 312.703125 141.710938 320.136719 143.257812 326.777344 143.257812 C 341.300781 143.257812 349.882812 137.019531 351.679688 122.644531 C 346.539062 132.527344 337.257812 136.273438 326.675781 136.273438 C 309.808594 136.273438 296.480469 125.992188 296.480469 108.273438 C 296.480469 91.355469 308.710938 80.476562 323.433594 80.476562 C 339.054688 80.476562 350.730469 88.308594 355.921875 103.28125 L 357.269531 103.28125 C 355.671875 96.195312 351.929688 90.605469 351.679688 89.90625 L 351.679688 83.070312 L 379.351562 83.070312 C 379.246094 83.394531 379.1875 83.746094 379.1875 84.105469 Z M 339.253906 123.296875 C 346.488281 123.296875 351.679688 118.804688 351.679688 111.019531 C 351.679688 103.234375 346.488281 98.839844 339.402344 98.839844 C 332.214844 98.839844 327.125 103.03125 327.125 111.019531 C 327.125 119.105469 332.214844 123.296875 339.253906 123.296875 "/>
</svg>
